<svg width="99" height="136" viewBox="0 0 99 136" fill="none" xmlns="http://www.w3.org/2000/svg">
<path d="M89.224 57.671C89.427 57.858 89.622 58.055 89.808 58.263C89.81 58.265 89.811 58.267 89.813 58.27C89.867 58.33 89.917 58.392 89.968 58.455C89.526 56.905 88.987 55.379 88.354 53.881C86.334 49.107 83.444 44.819 79.761 41.137C76.079 37.454 71.791 34.564 67.017 32.544C64.128 31.322 61.135 30.453 58.067 29.941C58.098 30.11 58.13 30.28 58.163 30.45C72.877 32.987 84.84 43.67 89.224 57.671Z" fill="#6BC159"/>
<path d="M50.429 29.886C50.43 29.725 50.43 29.564 50.432 29.405C45.366 29.525 40.449 30.579 35.804 32.544C31.031 34.564 26.742 37.454 23.06 41.137C19.377 44.819 16.488 49.106 14.467 53.881C12.377 58.824 11.317 64.075 11.317 69.487C11.317 71.042 11.405 72.584 11.579 74.109C11.605 74.339 11.634 74.568 11.665 74.797C11.675 74.871 11.684 74.945 11.694 75.019C11.725 75.247 11.758 75.476 11.795 75.704C11.804 75.757 11.812 75.811 11.82 75.864C11.856 76.092 11.894 76.32 11.935 76.547C12.018 77.02 12.111 77.491 12.212 77.962C12.26 78.188 12.312 78.413 12.363 78.637C12.877 80.837 13.579 82.993 14.467 85.094C14.724 85.698 14.992 86.295 15.276 86.883C15.39 86.732 15.5 86.579 15.604 86.425C14.419 83.931 13.488 81.294 12.843 78.548C12.79 78.323 12.739 78.097 12.69 77.871C12.592 77.416 12.502 76.959 12.419 76.499C12.379 76.271 12.34 76.042 12.304 75.813C12.293 75.752 12.284 75.692 12.275 75.631C12.24 75.403 12.206 75.175 12.174 74.946C12.163 74.873 12.154 74.8 12.144 74.728C12.115 74.499 12.085 74.271 12.059 74.04C11.887 72.546 11.798 71.028 11.798 69.488C11.798 47.973 29.038 30.409 50.429 29.886Z" fill="#6BC159"/>
<path d="M79.761 97.837C83.444 94.155 86.334 89.867 88.354 85.093C90.445 80.15 91.504 74.899 91.504 69.487C91.504 68.509 91.469 67.537 91.4 66.571C91.288 66.645 91.156 66.685 91.019 66.685C90.989 66.685 90.959 66.683 90.93 66.68C90.927 66.68 90.926 66.679 90.923 66.679C90.988 67.606 91.023 68.543 91.023 69.487C91.023 89.509 76.09 106.11 56.778 108.737C56.865 108.887 56.951 109.038 57.04 109.19C60.469 108.71 63.808 107.787 67.017 106.43C71.792 104.41 76.08 101.519 79.761 97.837Z" fill="#6BC159"/>
<path d="M19.273 92.621C19.156 92.748 19.039 92.873 18.922 92.994C20.164 94.705 21.545 96.323 23.06 97.838C26.743 101.52 31.031 104.411 35.804 106.43C39.35 107.93 43.055 108.899 46.864 109.328C46.933 109.173 47.003 109.018 47.071 108.864C35.65 107.613 25.674 101.488 19.273 92.621Z" fill="#6BC159"/>
<path d="M18.515 92.419C18.63 92.297 18.746 92.172 18.863 92.043C18.98 91.914 19.098 91.78 19.217 91.643C19.239 91.618 19.261 91.594 19.282 91.569C21.528 88.964 22.758 86.155 23.65 83.037C23.808 82.522 23.971 81.918 24.046 81.606C25.59 74.717 24.963 66.634 24.822 58.817C24.873 58.808 24.824 58.631 24.882 58.774C25.582 62.151 27.107 64.94 28.617 67.477C29.123 68.328 29.615 69.167 30.193 69.943C31.297 71.425 32.589 72.702 33.789 74.281C34.337 75.002 34.86 75.881 35.237 76.93C35.484 77.618 35.679 78.544 36.055 79.334C36.103 79.434 36.18 79.603 36.243 79.641C36.263 79.652 36.516 79.72 36.635 79.654C36.781 79.572 36.698 78.864 36.677 78.485C36.327 72.36 36.259 66.554 37.077 61.172C37.519 58.26 38.094 55.576 39.12 52.934C39.63 51.622 40.253 50.445 41.049 49.302C41.825 48.187 42.806 47.162 43.856 46.178C44.908 45.192 46.043 44.26 47.359 43.412C48.283 42.816 49.261 42.235 50.352 41.721C50.465 41.668 50.58 41.615 50.696 41.563C50.81 41.512 50.926 41.461 51.043 41.412C51.373 41.271 51.714 41.139 52.065 41.013C52.179 40.972 52.294 40.932 52.412 40.893C52.446 40.882 52.48 40.871 52.513 40.86C53.144 40.654 53.811 40.473 54.523 40.326C58.463 39.509 61.776 40.092 64.196 41.615C64.825 42.011 65.291 42.512 65.769 43.14C66.664 44.314 67.412 45.875 67.707 47.76C68.231 51.083 67.083 53.573 64.994 55.603C64.42 56.101 63.401 56.795 62.223 57.401C59.108 58.9 55.404 58.97 53.055 57.681C52.956 57.634 52.826 57.556 52.657 57.441C52.652 57.438 52.647 57.434 52.642 57.431C52.568 57.382 52.496 57.331 52.427 57.279C52.407 57.265 52.389 57.252 52.37 57.238C51.383 56.565 50.3 54.887 50.281 53.738L50.298 50.692C50.3 50.22 50.305 49.394 50.309 48.676C49.83 49.336 49.439 50.063 49.209 50.874C48.923 51.88 48.887 53.215 49.392 54.473L49.393 54.475C49.402 54.497 49.413 54.521 49.422 54.544C49.639 55.043 50.148 55.824 50.723 56.436C50.737 56.451 50.751 56.466 50.765 56.48C50.787 56.502 50.809 56.525 50.83 56.547C50.869 56.585 50.907 56.623 50.947 56.661C50.954 56.667 50.96 56.674 50.967 56.68C51.272 56.973 51.591 57.249 51.925 57.508C52.037 57.595 52.151 57.68 52.268 57.763C52.381 57.844 52.496 57.923 52.613 58C54.933 59.526 57.924 60.177 61.857 59.077C62.629 58.878 63.555 58.463 64.445 57.96C67.298 56.316 68.907 53.903 69.168 50.844C69.306 49.224 69.011 47.334 68.296 45.721C67.617 44.187 66.585 42.901 65.452 41.949C63.163 40.025 60.173 38.895 56.655 38.909C55.401 38.914 54.044 39.089 52.745 39.401C52.638 39.427 52.53 39.454 52.423 39.481C52.308 39.512 52.192 39.543 52.077 39.575C51.727 39.673 51.386 39.782 51.054 39.899C50.956 39.934 50.86 39.969 50.764 40.005C50.744 40.012 50.726 40.02 50.706 40.027C50.676 40.039 50.644 40.05 50.613 40.063C45.495 42.04 42.653 45.227 40.348 48.786C39.563 49.999 38.915 51.235 38.384 52.551C37.849 53.876 37.428 55.256 37.082 56.681C35.691 62.419 35.611 68.805 35.935 75.434C34.705 71.632 33.003 68.47 31.093 65.36C29.711 63.11 28.279 60.83 27.127 58.306C26.735 57.449 26.472 56.517 26.264 55.543C26.035 54.466 26.038 53.592 26.157 52.726C26.217 52.297 26.326 51.86 26.402 51.441C26.53 50.747 25.367 51.026 24.948 53.591C24.621 55.795 24.492 57.635 24.399 60.001C24.121 67.145 24.834 74.757 23.467 81.283C23.38 81.708 23.222 82.361 23.12 82.767C22.33 85.447 21.207 88.095 19.407 90.441C19.235 90.665 19.056 90.893 18.868 91.123C18.756 91.26 18.64 91.399 18.521 91.538C18.41 91.667 18.295 91.796 18.178 91.925C18.06 92.054 17.938 92.183 17.813 92.312C16.325 93.835 14.326 95.226 11.336 95.693C10.896 95.762 10.477 95.781 9.90998 95.767C7.96698 95.719 6.99999 95.092 6.15499 94.288C6.14199 94.264 6.16099 94.257 6.17999 94.251C7.08899 94.634 8.06398 94.921 9.20098 94.974C12.359 95.106 14.447 93.717 15.829 92.533C16.31 92.121 16.733 91.693 17.114 91.251C17.234 91.112 17.35 90.971 17.462 90.83C17.573 90.69 17.681 90.547 17.784 90.405C17.895 90.252 18.004 90.097 18.108 89.941C18.185 89.828 18.259 89.713 18.333 89.598C19.759 87.354 20.622 84.936 20.565 82.199C20.533 81.568 20.435 81.013 20.337 80.552C19.395 76.493 17.1 74.498 13.349 74.626C13.117 74.634 12.887 74.648 12.66 74.668C12.67 74.739 12.679 74.811 12.689 74.882C16.727 74.51 19.217 76.471 20.195 80.549C20.288 80.985 20.408 81.577 20.432 82.1C20.512 85.07 19.586 87.66 18.038 89.826C17.978 89.909 17.919 89.991 17.858 90.072C17.807 90.139 17.755 90.207 17.704 90.275C17.598 90.413 17.488 90.553 17.375 90.692C17.263 90.831 17.146 90.97 17.024 91.109C15.498 92.865 13.306 94.559 9.77899 94.759C8.37999 94.804 7.35398 94.459 6.49898 94.121C6.22998 94.015 5.90499 93.925 5.73599 93.777C5.53899 93.604 5.41198 93.303 5.26098 93.06C4.85098 92.39 4.35199 91.372 4.12799 90.533C3.73499 89.061 3.80098 87.581 4.10398 86.333C4.68798 83.921 6.13299 81.808 8.11299 80.166C9.08699 79.359 10.347 78.528 11.71 78.096C11.606 77.612 11.51 77.125 11.424 76.637C11.196 76.688 10.964 76.752 10.723 76.832C9.17199 77.347 7.94299 78.277 6.79199 79.185C5.64499 80.09 4.73498 81.167 4.05398 82.17C3.31198 83.259 2.69598 84.446 2.35998 85.753C2.01798 87.079 1.91799 88.598 2.36299 90.271C3.02499 92.753 4.50298 94.519 6.34598 95.534C7.28898 96.053 8.56698 96.475 10.216 96.394C13.579 96.117 15.809 95.131 18.146 92.793C18.269 92.675 18.391 92.549 18.515 92.419Z" fill="url(#paint0_linear_4_1564)"/>
<path d="M4.001 78.795C5.618 77.386 7.70299 76.011 10.386 75.306C10.657 75.234 10.923 75.171 11.183 75.117C11.173 75.042 11.163 74.967 11.154 74.892C7.928 75.559 5.376 77.337 3.701 78.858C2.157 80.259 0.927 81.912 0 83.714V84.026C0.066 83.894 0.134995 83.762 0.203995 83.631C1.12499 81.9 2.364 80.223 4.001 78.795Z" fill="url(#paint1_linear_4_1564)"/>
<path d="M16.289 86.647C16.181 86.812 16.067 86.974 15.951 87.134C15.844 87.282 15.732 87.427 15.617 87.572C15.501 87.719 15.38 87.864 15.256 88.006C14.766 88.566 14.221 89.092 13.626 89.572C13.237 89.885 12.805 90.196 12.386 90.488C12.003 90.755 11.413 90.998 11.354 91.518C11.686 91.605 11.961 91.378 12.201 91.249C12.941 90.849 13.645 90.408 14.24 89.884C14.706 89.473 15.152 89.029 15.552 88.571C15.677 88.429 15.797 88.286 15.912 88.142C16.027 87.997 16.14 87.851 16.244 87.705C16.251 87.695 16.258 87.685 16.265 87.675C16.371 87.526 16.476 87.373 16.576 87.218C17.533 85.745 18.194 84.04 18.338 82.192C18.353 81.824 18.315 81.036 18.208 80.65C17.751 78.863 16.722 77.919 15.493 77.227C14.781 76.827 13.942 76.523 12.947 76.488C13.027 76.933 13.115 77.376 13.212 77.815C15.297 77.715 16.689 79.002 17.431 80.779C17.662 81.389 17.749 82.124 17.755 82.657C17.764 83.49 17.457 84.399 17.137 85.108C16.896 85.638 16.613 86.151 16.289 86.647Z" fill="url(#paint2_linear_4_1564)"/>
<path d="M55.399 55.144C54.467 55.403 53.536 55.526 52.633 55.544L52.625 56.408C52.624 56.456 52.618 56.503 52.609 56.549C52.608 56.552 52.607 56.555 52.606 56.558C52.611 56.558 52.617 56.559 52.622 56.559C53.987 56.637 55.433 56.544 56.854 56.098C58.516 55.576 59.791 54.701 60.627 53.683C61.472 52.655 62.015 51.4 61.873 49.878C61.726 48.274 60.73 46.997 59.538 46.157C58.379 45.34 56.931 44.815 55.144 45.185C54.166 45.388 53.379 45.782 52.712 46.257C52.712 46.291 52.712 46.324 52.711 46.359L52.694 48.378C52.872 48.204 53.055 48.034 53.244 47.871C53.996 47.223 54.923 46.595 56.005 46.294C57.344 45.923 58.631 46.078 59.355 46.667C60.407 47.523 60.651 49.085 60.424 50.274C60.002 52.493 58.256 54.351 55.399 55.144Z" fill="url(#paint3_linear_4_1564)"/>
<path d="M42.726 52.94C44.697 54.316 46.988 55.438 49.526 56.069C49.295 55.748 49.096 55.429 48.947 55.15C46.668 54.629 44.681 53.669 42.875 52.439C42.618 52.264 42.312 51.993 41.928 52.07C41.994 52.473 42.409 52.719 42.726 52.94Z" fill="url(#paint4_linear_4_1564)"/>
<path d="M50.749 88.563C50.774 88.616 50.801 88.668 50.827 88.72C50.973 89.01 51.127 89.287 51.29 89.548H55.727L56.202 88.116L56.147 88.107C55.824 88.549 55.429 88.864 54.959 89.052C54.491 89.24 53.793 89.334 52.864 89.334C52.4 89.334 52.096 89.311 51.951 89.265C51.946 89.264 51.942 89.262 51.937 89.261C51.797 89.212 51.705 89.124 51.659 88.995C51.638 88.943 51.622 88.859 51.612 88.746C51.61 88.727 51.607 88.708 51.607 88.688C51.595 88.545 51.59 88.241 51.59 87.777L51.594 86.445C51.607 86.445 51.621 86.443 51.636 86.442C51.667 86.44 51.7 86.437 51.739 86.433C51.792 86.429 51.822 86.427 51.828 86.427H53.202C53.686 86.427 54.056 86.492 54.309 86.621C54.562 86.75 54.745 86.963 54.854 87.26H54.91V85.388H54.854C54.736 85.683 54.553 85.895 54.309 86.022C54.064 86.148 53.695 86.211 53.202 86.211H52.162C52.137 86.211 52.077 86.21 51.984 86.207C51.963 86.206 51.938 86.206 51.912 86.205C51.802 86.201 51.712 86.198 51.64 86.195C51.622 86.195 51.606 86.194 51.591 86.194V83.7C51.616 83.699 51.641 83.699 51.666 83.698C51.741 83.697 51.814 83.695 51.883 83.693C51.927 83.692 51.971 83.692 52.011 83.691C52.054 83.691 52.095 83.691 52.134 83.691H52.704C53.611 83.691 54.271 83.776 54.683 83.947C55.095 84.118 55.464 84.411 55.789 84.825L55.853 84.798L55.378 83.476H51.666C51.308 83.476 51.033 83.476 50.844 83.474C50.828 83.474 50.813 83.474 50.799 83.474C50.694 83.474 50.594 83.472 50.497 83.471C50.416 83.47 50.339 83.469 50.265 83.467V83.54C50.355 83.552 50.431 83.577 50.496 83.614C50.562 83.652 50.617 83.701 50.66 83.765C50.743 83.89 50.785 84.075 50.785 84.318V87.439C50.787 87.908 50.774 88.282 50.749 88.563Z" fill="url(#paint5_linear_4_1564)"/>
<path d="M64.718 88.368C64.6 88.051 64.5 87.804 64.422 87.627C64.26 87.264 64.023 86.982 63.709 86.781C63.698 86.774 63.688 86.768 63.677 86.761C63.566 86.692 63.444 86.632 63.31 86.58C63.199 86.538 63.078 86.501 62.952 86.471C62.909 86.461 62.866 86.451 62.821 86.442C62.72 86.422 62.615 86.405 62.505 86.391C62.612 86.389 62.714 86.383 62.815 86.375C62.858 86.372 62.9 86.368 62.942 86.364C63.061 86.352 63.157 86.341 63.285 86.315C63.405 86.293 63.518 86.266 63.625 86.234C63.847 86.169 64.042 86.083 64.208 85.977C64.613 85.719 64.816 85.366 64.816 84.917C64.816 84.609 64.71 84.342 64.501 84.116C64.291 83.89 63.99 83.724 63.597 83.617C63.517 83.595 63.426 83.576 63.326 83.559C63.189 83.537 63.033 83.518 62.86 83.506C62.796 83.502 62.722 83.498 62.642 83.494C62.598 83.492 62.551 83.49 62.503 83.489C62.397 83.485 62.281 83.483 62.152 83.48C61.933 83.476 61.678 83.474 61.39 83.474H60.409C60.062 83.474 59.787 83.474 59.582 83.472C59.376 83.471 59.176 83.468 58.98 83.465V83.538C59.175 83.572 59.309 83.649 59.382 83.769C59.455 83.89 59.491 84.158 59.491 84.572V87.437C59.491 88.306 59.448 88.852 59.361 89.073C59.275 89.293 59.111 89.435 58.869 89.5C58.868 89.5 58.867 89.501 58.866 89.501L58.867 89.514L58.87 89.574C59.04 89.565 59.21 89.558 59.377 89.554C59.396 89.553 59.412 89.553 59.429 89.553C59.55 89.55 59.669 89.548 59.785 89.548C59.812 89.548 59.839 89.548 59.865 89.548C60.02 89.548 60.185 89.55 60.36 89.555C60.536 89.559 60.724 89.566 60.928 89.575L60.933 89.502C60.68 89.435 60.511 89.281 60.424 89.042C60.337 88.802 60.294 88.268 60.294 87.438V86.445C60.354 86.443 60.454 86.437 60.593 86.429C60.731 86.421 60.838 86.417 60.915 86.417C61.609 86.417 62.135 86.488 62.492 86.63C62.578 86.664 62.655 86.703 62.721 86.746C62.77 86.777 62.817 86.812 62.862 86.85C62.909 86.89 62.956 86.933 63 86.98C63.156 87.146 63.294 87.357 63.408 87.615C63.41 87.618 63.412 87.622 63.412 87.625C63.452 87.711 63.487 87.803 63.521 87.899L63.771 88.608C63.806 88.705 63.841 88.8 63.876 88.895C63.901 88.959 63.927 89.025 63.951 89.088C64.014 89.244 64.079 89.4 64.145 89.555C64.245 89.552 64.342 89.55 64.435 89.548C64.528 89.546 64.619 89.546 64.706 89.546C64.756 89.546 64.866 89.547 65.038 89.55C65.21 89.553 65.358 89.555 65.483 89.555V89.463C65.226 89.402 64.971 89.036 64.718 88.368ZM62.441 86.13C62.013 86.185 61.462 86.212 60.784 86.212C60.771 86.212 60.71 86.21 60.599 86.206C60.487 86.201 60.386 86.197 60.295 86.194V83.709C60.511 83.703 60.713 83.698 60.902 83.695C61.09 83.692 61.278 83.691 61.464 83.691C61.724 83.691 61.962 83.701 62.179 83.721C62.304 83.733 62.422 83.748 62.533 83.766C62.582 83.774 62.628 83.783 62.675 83.793C62.914 83.843 63.116 83.909 63.279 83.995C63.315 84.015 63.35 84.035 63.384 84.057C63.701 84.26 63.86 84.552 63.86 84.936C63.86 85.266 63.763 85.527 63.57 85.719C63.487 85.8 63.388 85.869 63.271 85.926C63.176 85.972 63.056 86.013 62.91 86.048C62.869 86.058 62.827 86.068 62.783 86.076C62.68 86.097 62.565 86.114 62.441 86.13Z" fill="url(#paint6_linear_4_1564)"/>
<path d="M41.066 83.467C40.865 83.467 40.558 83.455 40.143 83.431H40.093V83.504C40.373 83.566 40.792 84.162 41.353 85.296C41.365 85.32 41.374 85.34 41.38 85.355L43.549 89.727H43.599L45.439 85.85C45.793 85.111 46.103 84.549 46.371 84.164C46.639 83.779 46.869 83.559 47.064 83.504V83.431C46.918 83.443 46.771 83.452 46.624 83.458C46.477 83.464 46.325 83.467 46.17 83.467C46.003 83.467 45.84 83.464 45.684 83.458C45.528 83.452 45.374 83.442 45.225 83.431V83.504C45.405 83.513 45.545 83.567 45.645 83.665C45.747 83.763 45.795 83.897 45.795 84.068C45.795 84.214 45.751 84.413 45.663 84.664C45.574 84.915 45.382 85.357 45.083 85.993L43.888 88.582L41.97 84.848C41.822 84.552 41.72 84.337 41.666 84.204C41.613 84.071 41.587 83.969 41.587 83.899C41.587 83.782 41.616 83.696 41.676 83.64C41.736 83.584 41.842 83.538 41.998 83.505V83.432C41.964 83.432 41.909 83.435 41.833 83.441C41.467 83.458 41.213 83.467 41.066 83.467Z" fill="url(#paint7_linear_4_1564)"/>
<path d="M28.451 83.847C28.54 83.738 28.715 83.682 28.976 83.682C29.329 83.682 29.68 83.781 30.028 83.977C30.377 84.174 30.699 84.457 30.994 84.826L31.085 84.808L30.656 83.476H25.187L24.767 84.808L24.849 84.835C25.15 84.46 25.478 84.174 25.83 83.977C26.184 83.78 26.545 83.682 26.916 83.682C27.154 83.682 27.313 83.737 27.394 83.845C27.475 83.953 27.515 84.224 27.515 84.658V87.142C27.515 88.109 27.469 88.724 27.378 88.986C27.286 89.249 27.111 89.415 26.854 89.485V89.586C26.978 89.573 27.11 89.565 27.249 89.559C27.387 89.553 27.592 89.55 27.862 89.55C28.121 89.55 28.333 89.553 28.497 89.559C28.661 89.565 28.824 89.574 28.985 89.586V89.485C28.724 89.405 28.547 89.233 28.456 88.965C28.364 88.699 28.319 88.09 28.319 87.142V84.685C28.319 84.236 28.363 83.956 28.451 83.847Z" fill="url(#paint8_linear_4_1564)"/>
<path d="M37.346 89.521V89.576C37.635 89.567 37.891 89.56 38.115 89.556C38.34 89.551 38.526 89.549 38.678 89.549C38.791 89.549 38.914 89.551 39.051 89.556C39.186 89.56 39.332 89.567 39.49 89.576L39.495 89.521C39.322 89.441 39.142 89.276 38.956 89.024C38.771 88.772 38.476 88.253 38.071 87.466L35.912 83.298H35.848L33.817 87.43C33.552 87.967 33.291 88.416 33.032 88.778C32.773 89.14 32.538 89.387 32.325 89.522V89.577C32.471 89.568 32.619 89.561 32.769 89.557C32.92 89.552 33.107 89.55 33.332 89.55C33.573 89.55 33.753 89.552 33.871 89.557C33.99 89.561 34.1 89.568 34.2 89.577V89.522C33.999 89.455 33.853 89.367 33.763 89.259C33.673 89.151 33.628 89.009 33.628 88.836C33.628 88.713 33.665 88.544 33.738 88.325C33.811 88.107 33.922 87.835 34.071 87.509L34.399 86.785C34.469 86.78 34.545 86.774 34.626 86.771C34.706 86.768 34.822 86.767 34.975 86.767H36.258C36.382 86.767 36.487 86.768 36.575 86.771C36.661 86.774 36.746 86.779 36.828 86.785L37.212 87.6C37.438 88.076 37.585 88.411 37.656 88.604C37.728 88.797 37.763 88.946 37.763 89.05C37.763 89.169 37.732 89.263 37.668 89.334C37.606 89.403 37.498 89.466 37.346 89.521ZM36.43 86.546C36.33 86.549 36.191 86.551 36.008 86.551H35.204C35.021 86.551 34.884 86.549 34.793 86.546C34.702 86.543 34.618 86.539 34.542 86.533L35.624 84.272L36.706 86.533C36.622 86.539 36.529 86.543 36.43 86.546Z" fill="url(#paint9_linear_4_1564)"/>
<path d="M68.661 88.816C68.541 89.178 68.33 89.398 68.028 89.475V89.548H69.873V89.475C69.578 89.387 69.372 89.174 69.255 88.837C69.242 88.803 69.232 88.764 69.222 88.72C69.14 88.392 69.094 87.804 69.082 86.954C69.08 86.81 69.079 86.659 69.079 86.5V84.149C69.161 84.239 69.261 84.349 69.377 84.477C69.47 84.578 69.571 84.689 69.685 84.813C69.771 84.906 69.863 85.006 69.96 85.113C71.789 87.105 73.134 88.642 73.995 89.725H74.078V86.173C74.078 85.169 74.137 84.502 74.253 84.172C74.37 83.841 74.584 83.615 74.895 83.493V83.429H74.864C74.434 83.453 74.117 83.465 73.909 83.465C73.782 83.465 73.554 83.456 73.224 83.438C73.152 83.432 73.096 83.429 73.06 83.429V83.493C73.359 83.634 73.564 83.854 73.676 84.154C73.788 84.454 73.845 85.055 73.845 85.958V88.033C73.202 87.424 72.549 86.761 71.885 86.043C71.279 85.391 70.591 84.615 69.822 83.717C69.745 83.629 69.669 83.539 69.592 83.448C69.567 83.449 69.537 83.449 69.507 83.45C69.44 83.452 69.36 83.454 69.267 83.457C69.081 83.463 68.963 83.466 68.912 83.466C68.88 83.466 68.818 83.465 68.731 83.462C68.696 83.461 68.658 83.46 68.615 83.458C68.531 83.455 68.455 83.452 68.383 83.451C68.324 83.45 68.269 83.449 68.218 83.449V83.522C68.271 83.541 68.32 83.562 68.364 83.584C68.503 83.651 68.607 83.732 68.678 83.824C68.689 83.837 68.698 83.849 68.705 83.862C68.797 84.002 68.842 84.281 68.842 84.697V86.777C68.84 87.774 68.781 88.454 68.661 88.816Z" fill="url(#paint10_linear_4_1564)"/>
<path d="M62.14 68.959C60.926 66.723 58.948 64.977 56.029 65.501C54.628 65.752 53.47 66.418 52.524 67.208C52.523 67.262 52.523 67.316 52.522 67.37L52.513 68.251C53.167 67.672 53.967 67.213 54.99 66.99C57.152 66.518 58.659 67.53 59.653 68.794C60.717 70.147 61.473 71.776 61.877 73.911C62.166 75.036 62.348 76.222 62.525 77.38C62.548 77.538 62.574 77.695 62.597 77.854C62.841 79.431 63.063 81.091 63.273 82.927C63.276 82.954 63.277 82.98 63.277 83.006H65.04C64.89 81.272 64.721 79.53 64.49 77.765C64.083 74.656 63.401 71.278 62.14 68.959Z" fill="url(#paint11_linear_4_1564)"/>
<path d="M52.5 69.629L52.498 69.921C53.025 69.328 53.67 68.813 54.494 68.494C56.144 67.855 57.476 68.595 58.432 69.472C59.44 70.397 60.17 71.545 60.717 73.004C61.296 74.552 61.596 76.427 61.841 78.2C62.065 79.812 62.264 81.415 62.445 83.004H62.585C62.396 81.351 62.179 79.676 61.913 77.958C61.706 76.62 61.518 75.286 61.196 74.045C60.835 72.126 60.151 70.545 59.108 69.22C58.243 68.119 57.212 67.561 56.043 67.561C55.753 67.561 55.448 67.596 55.138 67.664C54.184 67.872 53.373 68.331 52.659 69.065C52.613 69.113 52.56 69.152 52.505 69.184L52.5 69.629Z" fill="url(#paint12_linear_4_1564)"/>
<path d="M63.289 90.015H63.182C63.3 91.223 63.415 92.417 63.533 93.594C63.585 93.53 63.602 93.434 63.605 93.334C63.607 93.233 63.595 93.129 63.587 93.048C63.524 92.352 63.452 91.747 63.39 91.093C63.355 90.733 63.322 90.374 63.289 90.015Z" fill="url(#paint13_linear_4_1564)"/>
<path d="M72.353 67.24C72.627 66.219 72.882 65.202 73.279 64.279C74.065 62.457 75.354 60.717 76.844 59.542C77.653 58.905 78.629 58.326 79.745 57.949C83.685 56.619 86.751 58.374 88.464 60.748C89.19 61.923 89.699 62.883 90.071 63.665C90.424 64.408 90.651 64.991 90.818 65.442C90.896 65.654 90.961 65.837 91.019 65.993C91.138 65.821 91.227 65.561 91.282 65.236C91.459 64.173 91.261 62.416 90.557 60.78C90.32 60.228 90.026 59.691 89.667 59.198C89.549 59.035 89.423 58.876 89.29 58.723C89.155 58.573 89.016 58.427 88.869 58.286C86.819 56.321 83.603 55.374 79.693 56.388C78.411 56.72 77.361 57.234 76.468 57.886C74.805 59.099 73.568 60.886 72.743 62.804C72.323 63.784 71.933 64.773 71.674 65.829C70.377 71.113 69.693 76.926 68.851 82.607C68.831 82.739 68.813 82.871 68.793 83.004H69.561C70.277 77.477 71.038 72.126 72.353 67.24Z" fill="url(#paint14_linear_4_1564)"/>
<path d="M67.035 94.496C66.982 94.763 66.942 95.059 66.877 95.329C66.818 95.565 66.738 95.842 66.58 96.033C66.2 95.355 66.166 94.549 66.062 93.791C65.89 92.525 65.751 91.268 65.631 90.015H63.979C64.077 91.105 64.177 92.203 64.295 93.298C64.301 93.35 64.306 93.402 64.312 93.454C64.545 95.575 64.785 97.885 65.533 99.82C65.862 99.78 66.012 99.387 66.177 99.13C66.357 98.847 66.547 98.555 66.713 98.268C67.056 97.682 67.441 97.051 67.654 96.453C67.98 95.542 68.109 94.393 68.274 93.28C68.433 92.206 68.577 91.113 68.713 90.016H67.792C67.566 91.515 67.321 93.009 67.035 94.496Z" fill="url(#paint15_linear_4_1564)"/>
<path d="M47.553 83.945C48.058 86.756 49.103 89.326 50.473 91.122C50.542 91.213 50.613 91.301 50.684 91.388C50.728 91.442 50.773 91.496 50.818 91.549C50.966 91.723 51.118 91.889 51.273 92.044C51.369 92.141 51.469 92.236 51.572 92.328C51.682 92.428 51.797 92.524 51.914 92.617C52.025 92.706 52.142 92.791 52.258 92.872C52.988 93.379 53.821 93.743 54.706 93.84C56.48 94.036 57.725 93.081 58.449 92.02C58.796 91.511 59.108 90.795 59.319 90.016H58.742C58.366 91.281 57.551 92.487 55.973 92.77C54.316 93.068 52.859 91.983 51.932 90.975C51.879 90.918 51.828 90.861 51.78 90.806C51.717 90.732 51.653 90.656 51.592 90.578C51.42 90.364 51.256 90.137 51.098 89.896C51.026 89.784 50.953 89.667 50.884 89.55C50.864 89.517 50.845 89.483 50.825 89.449C50.762 89.341 50.7 89.23 50.64 89.117C50.585 89.015 50.533 88.913 50.48 88.808C50.451 88.749 50.422 88.692 50.394 88.632C48.487 84.639 48.094 78.552 49.009 74.956C49.315 75.048 49.623 75.12 49.909 75.215C49.74 76.382 49.382 79.009 50.164 80.284V80.196C50.165 80.098 50.165 79.999 50.165 79.9C49.519 78.669 49.888 76.425 49.994 75.327C50.001 75.285 50.006 75.256 50.01 75.236C50.038 75.241 50.176 75.306 50.203 75.314C50.249 75.334 50.296 75.355 50.343 75.377C50.399 75.402 50.454 75.429 50.51 75.457C50.517 75.46 50.523 75.462 50.529 75.465C50.643 75.522 50.759 75.582 50.874 75.647C51.145 75.801 51.414 75.981 51.666 76.191C51.691 76.212 51.718 76.233 51.742 76.255C51.861 76.359 51.976 76.47 52.083 76.589C52.208 76.725 52.322 76.871 52.426 77.027C52.712 77.458 52.911 77.968 52.962 78.573C53.013 79.171 52.856 79.961 52.392 80.411C52.392 80.498 52.391 80.581 52.39 80.66C52.696 80.387 52.869 79.993 52.963 79.645C53.251 78.59 52.954 77.58 52.429 76.781C52.324 76.619 52.208 76.467 52.087 76.324C52.041 76.27 51.994 76.218 51.946 76.167C51.88 76.096 51.812 76.028 51.745 75.963C51.52 75.75 51.285 75.57 51.054 75.432C51.01 75.405 50.966 75.38 50.923 75.356C50.907 75.347 50.892 75.338 50.875 75.329C50.759 75.264 50.646 75.205 50.53 75.151C50.42 75.098 50.308 75.048 50.187 74.998C50.147 74.981 50.107 74.964 50.065 74.947C50.101 74.764 50.142 74.584 50.186 74.408L50.188 74.011C50.108 74.306 50.035 74.609 49.97 74.921C49.679 74.826 49.293 74.743 49.075 74.677C49.345 73.525 49.716 72.498 50.198 71.521L50.203 70.263L50.205 69.81C49.204 71.261 48.506 72.836 47.936 74.538C46.989 74.444 45.916 74.531 44.794 74.686L44.839 74.938C45.926 74.789 46.961 74.712 47.87 74.817C47.207 77.483 46.942 80.538 47.553 83.945Z" fill="url(#paint16_linear_4_1564)"/>
<path d="M51.688 81.48C51.689 81.432 51.689 81.384 51.69 81.335C51.691 81.218 51.692 81.102 51.693 80.984C51.694 80.906 51.695 80.827 51.696 80.749C51.697 80.632 51.699 80.515 51.699 80.398C51.701 80.281 51.702 80.164 51.704 80.046C51.713 79.121 51.723 78.185 51.732 77.242C51.681 77.178 51.628 77.114 51.572 77.052C51.484 76.956 51.388 76.862 51.287 76.773C51.16 76.663 51.021 76.557 50.871 76.455C50.867 77.553 50.863 78.638 50.859 79.709C50.858 79.871 50.857 80.034 50.857 80.195C50.856 80.328 50.856 80.462 50.855 80.594C50.854 80.693 50.854 80.793 50.854 80.892C50.853 81.015 50.853 81.138 50.853 81.261C50.853 81.269 50.853 81.278 50.853 81.286C50.85 81.863 50.848 82.435 50.847 83.003H51.673C51.677 82.5 51.683 81.992 51.688 81.48Z" fill="url(#paint17_linear_4_1564)"/>
<path d="M51.938 55.885C51.939 55.77 51.94 55.655 51.941 55.539C51.942 55.423 51.943 55.308 51.944 55.192C51.944 55.109 51.946 55.027 51.947 54.944C51.964 53.129 51.978 51.371 51.993 49.695C51.994 49.572 51.996 49.452 51.997 49.33C51.997 49.263 51.997 49.196 51.998 49.129C52.005 48.337 52.012 47.564 52.018 46.813C52.02 46.659 52.021 46.505 52.023 46.353C52.024 46.204 52.025 46.056 52.026 45.908C52.039 44.424 52.05 43.032 52.059 41.751C52.06 41.628 52.062 41.505 52.062 41.383C51.708 41.512 51.369 41.648 51.04 41.791C51.04 41.916 51.04 42.042 51.039 42.168C51.027 43.867 51.018 45.583 51.008 47.312C51.008 47.417 51.007 47.523 51.007 47.628C51.006 47.693 51.006 47.757 51.006 47.822C51 48.777 50.994 49.735 50.989 50.694C50.987 51.007 50.986 51.319 50.984 51.631C50.979 52.642 50.973 53.655 50.968 54.668C50.968 54.681 50.968 54.693 50.967 54.706C51.088 55.153 51.321 55.588 51.591 55.968C51.7 56.122 51.817 56.268 51.934 56.401C51.935 56.23 51.936 56.057 51.938 55.885Z" fill="url(#paint18_linear_4_1564)"/>
<path d="M52.08 38.857C52.101 35.802 52.11 33.77 52.102 33.218C52.055 29.613 55.954 30.044 58.453 36.582C58.186 34.599 57.876 32.706 57.538 30.873C57.505 30.692 57.472 30.511 57.437 30.331C57.405 30.162 57.374 29.994 57.341 29.827C57.306 29.646 57.271 29.467 57.236 29.287C55.348 19.652 52.773 11.469 51.627 0C51.422 0.333 51.257 12.596 51.13 28.876C51.128 29.048 51.126 29.221 51.125 29.395C51.124 29.555 51.123 29.716 51.121 29.876C51.12 30.049 51.118 30.222 51.118 30.395C51.097 33.222 51.076 36.16 51.055 39.168C51.055 39.29 51.054 39.412 51.053 39.534C51.387 39.418 51.729 39.312 52.076 39.216C52.079 39.095 52.079 38.975 52.08 38.857Z" fill="url(#paint19_linear_4_1564)"/>
<path d="M51.411 74.836C51.526 74.906 51.64 74.983 51.754 75.066C51.766 73.882 51.778 72.691 51.79 71.497C51.792 71.312 51.793 71.127 51.795 70.943C51.796 70.908 51.796 70.873 51.796 70.839C51.798 70.725 51.799 70.611 51.799 70.497C51.802 70.302 51.804 70.106 51.805 69.91C51.806 69.784 51.808 69.658 51.809 69.531C51.81 69.474 51.811 69.418 51.812 69.362C51.812 69.302 51.812 69.241 51.813 69.181C51.813 69.111 51.814 69.04 51.815 68.97C51.819 68.595 51.823 68.222 51.826 67.848C51.828 67.686 51.83 67.525 51.831 67.364C51.833 67.206 51.834 67.049 51.836 66.89C51.864 64.002 51.891 61.136 51.917 58.366C51.898 58.354 51.882 58.342 51.865 58.329C51.746 58.245 51.623 58.153 51.5 58.058C51.316 57.916 51.134 57.765 50.954 57.608C50.936 61.215 50.921 64.812 50.905 68.337C50.905 68.467 50.904 68.597 50.903 68.727C50.903 68.778 50.903 68.828 50.903 68.878C50.901 69.342 50.899 69.805 50.896 70.265C50.896 70.494 50.894 70.723 50.894 70.95C50.894 71.071 50.893 71.191 50.892 71.311C50.892 71.436 50.891 71.561 50.891 71.686C50.89 71.819 50.889 71.953 50.889 72.085C50.889 72.164 50.888 72.241 50.888 72.319C50.887 72.363 50.887 72.407 50.887 72.451C50.887 72.749 50.885 73.047 50.884 73.344C50.882 73.73 50.88 74.113 50.879 74.496C50.879 74.514 50.879 74.533 50.879 74.551C50.992 74.606 51.103 74.663 51.213 74.724C51.287 74.763 51.349 74.8 51.411 74.836Z" fill="url(#paint20_linear_4_1564)"/>
<path d="M56.297 109.287C56.209 109.134 56.12 108.982 56.034 108.831C55.939 108.666 55.846 108.503 55.753 108.34C53.995 105.249 52.612 102.357 52.829 98.401C51.907 102.568 53.009 105.407 54.702 108.443C54.795 108.608 54.889 108.774 54.983 108.94C55.071 109.093 55.16 109.246 55.25 109.4C55.346 109.564 55.441 109.728 55.539 109.894C58.201 114.417 61.628 119.851 61.522 130.776C59.409 117.073 52.355 116.693 51.626 113.544C50.265 115.197 51.88 115.721 47.988 118.547C45.727 120.188 44.113 122.417 43.092 125.457C43.227 119.377 45.688 114.486 47.779 109.941C47.855 109.774 47.932 109.606 48.008 109.44C48.079 109.284 48.151 109.128 48.22 108.973C48.295 108.805 48.369 108.637 48.444 108.47C49.048 107.101 49.59 105.757 49.994 104.411C50.376 103.134 50.629 102.272 50.787 101.652C50.779 104.539 50.773 106.895 50.768 108.576C50.768 108.757 50.767 108.93 50.767 109.095C50.767 109.263 50.767 109.425 50.766 109.576C50.766 109.762 50.766 109.935 50.765 110.095C50.763 110.996 50.761 111.478 50.761 111.478C50.761 111.478 50.872 110.959 51.003 110.099C51.026 109.938 51.052 109.764 51.077 109.58C51.098 109.427 51.119 109.267 51.14 109.1C51.161 108.933 51.181 108.761 51.201 108.581C51.281 107.854 51.35 107.027 51.388 106.143C51.415 105.459 51.482 100.393 51.562 93.22C51.537 93.2 51.51 93.181 51.485 93.16C51.36 93.061 51.234 92.954 51.111 92.844C51.008 92.753 50.91 92.659 50.815 92.565C50.808 94.941 50.801 97.156 50.794 99.172C50.458 102.409 49.334 105.416 48.017 108.436C47.944 108.603 47.871 108.77 47.796 108.937C47.729 109.092 47.658 109.247 47.59 109.402C47.515 109.569 47.44 109.735 47.365 109.902C44.877 115.427 42.066 121.122 42.542 128.446C44.939 117.942 49.957 120.588 51.339 115.371C53.235 118.521 59.409 118.26 61.626 135.32C63.341 121.636 59.693 115.147 56.58 109.775C56.485 109.612 56.39 109.449 56.297 109.287Z" fill="url(#paint21_linear_4_1564)"/>
<path d="M84.034 40.307L86.25 38.312C86.185 38.241 86.121 38.169 86.057 38.098L83.842 40.093C83.905 40.163 83.97 40.235 84.034 40.307Z" fill="#6BC159"/>
<path d="M85.517 42.053L87.834 40.177C87.773 40.102 87.712 40.028 87.651 39.954L85.335 41.83C85.396 41.904 85.457 41.978 85.517 42.053Z" fill="#6BC159"/>
<path d="M80.804 37.057L82.8 34.842C82.728 34.778 82.656 34.714 82.585 34.649L80.59 36.8651C80.662 36.9281 80.733 36.993 80.804 37.057Z" fill="#6BC159"/>
<path d="M82.462 38.64L84.57 36.532C84.502 36.464 84.433 36.396 84.366 36.328L82.259 38.436C82.326 38.504 82.394 38.572 82.462 38.64Z" fill="#6BC159"/>
<path d="M86.907 43.875L89.319 42.124C89.262 42.046 89.207 41.968 89.15 41.89L86.738 43.642C86.795 43.72 86.851 43.797 86.907 43.875Z" fill="#6BC159"/>
<path d="M90.482 49.741L93.139 48.387C93.094 48.301 93.051 48.215 93.008 48.13L90.352 49.484C90.395 49.569 90.439 49.655 90.482 49.741Z" fill="#6BC159"/>
<path d="M78.843 103.593L80.72 105.91C80.795 105.849 80.869 105.788 80.944 105.727L79.067 103.41C78.994 103.472 78.92 103.533 78.843 103.593Z" fill="#6BC159"/>
<path d="M88.201 45.767L90.702 44.143C90.649 44.063 90.597 43.982 90.545 43.902L88.044 45.526C88.096 45.605 88.149 45.686 88.201 45.767Z" fill="#6BC159"/>
<path d="M80.59 102.109L82.585 104.325C82.656 104.261 82.728 104.197 82.8 104.132L80.804 101.917C80.733 101.981 80.662 102.046 80.59 102.109Z" fill="#6BC159"/>
<path d="M77.022 104.983L78.775 107.395C78.853 107.339 78.93 107.282 79.007 107.226L77.255 104.814C77.177 104.871 77.1 104.927 77.022 104.983Z" fill="#6BC159"/>
<path d="M89.394 47.724L91.976 46.234C91.928 46.151 91.878 46.067 91.831 45.984L89.249 47.475C89.298 47.557 89.346 47.64 89.394 47.724Z" fill="#6BC159"/>
<path d="M79.067 35.562L80.944 33.245C80.87 33.184 80.796 33.123 80.72 33.062L78.843 35.379C78.92 35.44 78.994 35.501 79.067 35.562Z" fill="#6BC159"/>
<path d="M61.274 23.778C61.18 23.758 61.086 23.738 60.992 23.718L60.372 26.636C60.466 26.656 60.56 26.676 60.653 26.695L61.274 23.778Z" fill="#6BC159"/>
<path d="M82.258 100.537L84.365 102.645C84.432 102.577 84.501 102.509 84.568 102.441L82.461 100.333C82.394 100.402 82.326 100.47 82.258 100.537Z" fill="#6BC159"/>
<path d="M58.868 23.328C58.773 23.312 58.678 23.297 58.584 23.283L58.116 26.229C58.212 26.244 58.306 26.259 58.401 26.274L58.868 23.328Z" fill="#6BC159"/>
<path d="M63.653 24.355C63.56 24.33 63.466 24.306 63.375 24.281L62.603 27.162C62.696 27.187 62.789 27.21 62.882 27.236L63.653 24.355Z" fill="#6BC159"/>
<path d="M79.007 31.747C78.93 31.691 78.853 31.634 78.775 31.578L77.022 33.99C77.1 34.047 77.177 34.103 77.256 34.159L79.007 31.747Z" fill="#6BC159"/>
<path d="M73.173 107.47L74.665 110.053C74.748 110.005 74.831 109.956 74.913 109.908L73.423 107.325C73.34 107.373 73.257 107.422 73.173 107.47Z" fill="#6BC159"/>
<path d="M75.131 106.277L76.755 108.777C76.835 108.725 76.916 108.673 76.997 108.62L75.373 106.119C75.293 106.172 75.212 106.225 75.131 106.277Z" fill="#6BC159"/>
<path d="M65.999 25.058C65.907 25.028 65.816 24.998 65.725 24.968L64.803 27.806C64.895 27.835 64.987 27.865 65.077 27.895L65.999 25.058Z" fill="#6BC159"/>
<path d="M74.914 29.066C74.832 29.018 74.749 28.969 74.666 28.921L73.173 31.504C73.257 31.552 73.34 31.6 73.423 31.649L74.914 29.066Z" fill="#6BC159"/>
<path d="M76.997 30.3531C76.916 30.3001 76.835 30.249 76.755 30.196L75.131 32.696C75.212 32.748 75.293 32.8001 75.373 32.8531L76.997 30.3531Z" fill="#6BC159"/>
<path d="M72.768 27.889C72.682 27.846 72.596 27.803 72.511 27.759L71.157 30.416C71.242 30.459 71.328 30.502 71.413 30.547L72.768 27.889Z" fill="#6BC159"/>
<path d="M68.303 25.882C68.214 25.847 68.124 25.812 68.034 25.778L66.965 28.563C67.055 28.597 67.145 28.632 67.234 28.667L68.303 25.882Z" fill="#6BC159"/>
<path d="M70.562 26.827C70.474 26.788 70.386 26.749 70.298 26.71L69.085 29.435C69.173 29.474 69.261 29.513 69.348 29.552L70.562 26.827Z" fill="#6BC159"/>
<path d="M94.202 78.729L97.118 79.349C97.138 79.255 97.158 79.161 97.178 79.067L94.261 78.447C94.242 78.541 94.221 78.636 94.202 78.729Z" fill="#6BC159"/>
<path d="M91.464 51.812L94.188 50.6C94.149 50.512 94.11 50.424 94.071 50.336L91.347 51.549C91.385 51.636 91.424 51.725 91.464 51.812Z" fill="#6BC159"/>
<path d="M94.927 74.206L97.892 74.517C97.902 74.421 97.913 74.326 97.922 74.23L94.957 73.918C94.949 74.015 94.938 74.11 94.927 74.206Z" fill="#6BC159"/>
<path d="M92.335 53.932L95.118 52.864C95.084 52.774 95.05 52.684 95.014 52.595L92.231 53.663C92.266 53.753 92.301 53.842 92.335 53.932Z" fill="#6BC159"/>
<path d="M98.16 69.343H95.179C95.18 69.391 95.181 69.439 95.181 69.487C95.181 69.535 95.18 69.583 95.179 69.631H98.16C98.16 69.583 98.16 69.535 98.16 69.487C98.16 69.439 98.16 69.391 98.16 69.343Z" fill="#6BC159"/>
<path d="M60.992 115.255C61.087 115.235 61.18 115.216 61.274 115.195L60.653 112.278C60.56 112.298 60.465 112.318 60.372 112.338L60.992 115.255Z" fill="#6BC159"/>
<path d="M95.112 71.922L98.09 72.078C98.095 71.982 98.1 71.886 98.104 71.79L95.128 71.634C95.123 71.73 95.118 71.826 95.112 71.922Z" fill="#6BC159"/>
<path d="M93.092 56.096L95.928 55.175C95.898 55.083 95.868 54.992 95.838 54.9L93.003 55.822C93.034 55.912 93.063 56.003 93.092 56.096Z" fill="#6BC159"/>
<path d="M95.128 67.34L98.104 67.184C98.1 67.088 98.095 66.992 98.09 66.896L95.112 67.052C95.118 67.148 95.123 67.244 95.128 67.34Z" fill="#6BC159"/>
<path d="M94.958 65.055L97.923 64.743C97.913 64.647 97.902 64.552 97.893 64.457L94.928 64.768C94.938 64.863 94.949 64.959 94.958 65.055Z" fill="#6BC159"/>
<path d="M93.736 58.296L96.615 57.524C96.59 57.431 96.566 57.338 96.541 57.246L93.662 58.017C93.686 58.109 93.711 58.203 93.736 58.296Z" fill="#6BC159"/>
<path d="M94.261 60.526L97.177 59.906C97.157 59.812 97.137 59.718 97.117 59.624L94.201 60.244C94.221 60.338 94.242 60.432 94.261 60.526Z" fill="#6BC159"/>
<path d="M94.669 62.782L97.614 62.316C97.599 62.221 97.583 62.126 97.568 62.031L94.624 62.497C94.639 62.591 94.654 62.686 94.669 62.782Z" fill="#6BC159"/>
<path d="M93.662 80.957L96.541 81.729C96.566 81.636 96.59 81.543 96.615 81.45L93.736 80.679C93.711 80.771 93.686 80.864 93.662 80.957Z" fill="#6BC159"/>
<path d="M94.624 76.477L97.568 76.943C97.583 76.848 97.599 76.754 97.614 76.658L94.669 76.192C94.654 76.287 94.639 76.382 94.624 76.477Z" fill="#6BC159"/>
<path d="M90.352 89.49L93.008 90.844C93.051 90.759 93.094 90.673 93.138 90.587L90.482 89.234C90.439 89.319 90.395 89.404 90.352 89.49Z" fill="#6BC159"/>
<path d="M89.25 91.499L91.832 92.99C91.879 92.907 91.929 92.824 91.977 92.74L89.395 91.25C89.346 91.333 89.298 91.416 89.25 91.499Z" fill="#6BC159"/>
<path d="M86.738 95.331L89.15 97.083C89.207 97.005 89.262 96.928 89.319 96.85L86.907 95.098C86.851 95.176 86.795 95.254 86.738 95.331Z" fill="#6BC159"/>
<path d="M85.336 97.144L87.652 99.02C87.713 98.945 87.774 98.871 87.835 98.796L85.518 96.92C85.457 96.995 85.396 97.069 85.336 97.144Z" fill="#6BC159"/>
<path d="M88.044 93.448L90.545 95.072C90.597 94.992 90.649 94.911 90.702 94.831L88.201 93.207C88.149 93.287 88.096 93.368 88.044 93.448Z" fill="#6BC159"/>
<path d="M91.346 87.425L94.07 88.638C94.109 88.551 94.148 88.462 94.187 88.375L91.463 87.162C91.424 87.249 91.385 87.337 91.346 87.425Z" fill="#6BC159"/>
<path d="M83.841 98.881L86.056 100.876C86.12 100.805 86.184 100.733 86.248 100.662L84.033 98.667C83.97 98.738 83.905 98.81 83.841 98.881Z" fill="#6BC159"/>
<path d="M71.157 108.558L72.511 111.215C72.596 111.172 72.682 111.129 72.768 111.085L71.414 108.427C71.329 108.471 71.243 108.515 71.157 108.558Z" fill="#6BC159"/>
<path d="M93.004 83.153L95.839 84.074C95.869 83.983 95.899 83.891 95.929 83.8L93.093 82.879C93.063 82.97 93.034 83.061 93.004 83.153Z" fill="#6BC159"/>
<path d="M92.231 85.31L95.014 86.378C95.049 86.289 95.083 86.199 95.118 86.109L92.335 85.041C92.301 85.132 92.266 85.221 92.231 85.31Z" fill="#6BC159"/>
<path d="M8.62001 60.244L5.70001 59.623C5.67901 59.717 5.66001 59.811 5.64001 59.905L8.56001 60.526C8.58001 60.432 8.60001 60.338 8.62001 60.244Z" fill="#6BC159"/>
<path d="M66.965 110.411L68.034 113.196C68.124 113.162 68.214 113.127 68.303 113.092L67.234 110.307C67.145 110.342 67.055 110.377 66.965 110.411Z" fill="#6BC159"/>
<path d="M18.788 98.666L16.57 100.663C16.634 100.735 16.699 100.807 16.763 100.878L18.98 98.881C18.917 98.81 18.852 98.738 18.788 98.666Z" fill="#6BC159"/>
<path d="M64.802 111.168L65.724 114.005C65.816 113.975 65.907 113.945 65.998 113.916L65.076 111.079C64.986 111.109 64.894 111.139 64.802 111.168Z" fill="#6BC159"/>
<path d="M7.64298 69.631C7.64198 69.583 7.64098 69.535 7.64098 69.487C7.64098 69.439 7.64198 69.391 7.64298 69.343H4.65798C4.65798 69.391 4.65698 69.439 4.65698 69.487C4.65698 69.535 4.65798 69.583 4.65798 69.631H7.64298Z" fill="#6BC159"/>
<path d="M17.304 96.92L14.985 98.798C15.046 98.873 15.107 98.947 15.167 99.021L17.486 97.143C17.426 97.069 17.365 96.995 17.304 96.92Z" fill="#6BC159"/>
<path d="M62.602 111.811L63.374 114.692C63.466 114.667 63.56 114.644 63.652 114.618L62.881 111.737C62.788 111.763 62.695 111.786 62.602 111.811Z" fill="#6BC159"/>
<path d="M7.70999 67.052L4.72899 66.895C4.72299 66.991 4.71899 67.087 4.71399 67.184L7.69399 67.34C7.69999 67.244 7.70399 67.148 7.70999 67.052Z" fill="#6BC159"/>
<path d="M41.548 115.196C41.643 115.217 41.736 115.236 41.83 115.256L42.45 112.338C42.356 112.318 42.262 112.298 42.169 112.278L41.548 115.196Z" fill="#6BC159"/>
<path d="M7.89398 64.768L4.92498 64.456C4.91398 64.552 4.90398 64.647 4.89398 64.743L7.86398 65.056C7.87298 64.959 7.88398 64.863 7.89398 64.768Z" fill="#6BC159"/>
<path d="M8.19798 62.496L5.24898 62.029C5.23398 62.124 5.21898 62.219 5.20398 62.314L8.15198 62.781C8.16798 62.686 8.18198 62.592 8.19798 62.496Z" fill="#6BC159"/>
<path d="M7.89398 74.206C7.88398 74.11 7.87298 74.015 7.86398 73.919L4.89398 74.231C4.90498 74.327 4.91498 74.422 4.92498 74.518L7.89398 74.206Z" fill="#6BC159"/>
<path d="M4.71399 71.79C4.71899 71.886 4.72299 71.982 4.72899 72.078L7.70999 71.922C7.70399 71.826 7.69999 71.73 7.69399 71.634L4.71399 71.79Z" fill="#6BC159"/>
<path d="M25.824 108.622C25.904 108.675 25.985 108.727 26.066 108.779L27.691 106.276C27.61 106.224 27.529 106.172 27.45 106.119L25.824 108.622Z" fill="#6BC159"/>
<path d="M32.258 112.149C32.346 112.189 32.434 112.227 32.522 112.266L33.736 109.54C33.648 109.5 33.56 109.461 33.472 109.422L32.258 112.149Z" fill="#6BC159"/>
<path d="M34.518 113.093C34.607 113.128 34.697 113.163 34.786 113.197L35.856 110.411C35.766 110.377 35.676 110.342 35.587 110.307L34.518 113.093Z" fill="#6BC159"/>
<path d="M36.823 113.917C36.914 113.947 37.006 113.977 37.097 114.006L38.019 111.168C37.927 111.138 37.836 111.109 37.745 111.079L36.823 113.917Z" fill="#6BC159"/>
<path d="M30.053 111.086C30.138 111.13 30.224 111.174 30.31 111.217L31.664 108.558C31.579 108.514 31.493 108.471 31.407 108.427L30.053 111.086Z" fill="#6BC159"/>
<path d="M39.169 114.62C39.262 114.644 39.355 114.669 39.447 114.693L40.219 111.811C40.126 111.786 40.033 111.763 39.94 111.737L39.169 114.62Z" fill="#6BC159"/>
<path d="M23.755 103.411L21.876 105.73C21.951 105.791 22.025 105.852 22.1 105.912L23.978 103.593C23.902 103.533 23.829 103.472 23.755 103.411Z" fill="#6BC159"/>
<path d="M22.017 101.917L20.02 104.135C20.09 104.199 20.163 104.263 20.234 104.328L22.231 102.11C22.16 102.046 22.089 101.981 22.017 101.917Z" fill="#6BC159"/>
<path d="M20.36 100.333L18.25 102.443C18.318 102.511 18.386 102.579 18.454 102.647L20.564 100.537C20.496 100.47 20.427 100.402 20.36 100.333Z" fill="#6BC159"/>
<path d="M9.161 58.017L6.276 57.245C6.252 57.337 6.227 57.431 6.203 57.523L9.08701 58.296C9.11101 58.203 9.134 58.109 9.161 58.017Z" fill="#6BC159"/>
<path d="M27.906 109.91C27.989 109.958 28.072 110.007 28.156 110.055L29.648 107.47C29.564 107.422 29.481 107.374 29.399 107.325L27.906 109.91Z" fill="#6BC159"/>
<path d="M23.812 107.228C23.889 107.284 23.967 107.341 24.045 107.397L25.799 104.982C25.721 104.925 25.644 104.869 25.566 104.812L23.812 107.228Z" fill="#6BC159"/>
<path d="M11.475 51.549L8.747 50.334C8.708 50.422 8.669 50.51 8.63 50.598L11.358 51.812C11.397 51.725 11.436 51.636 11.475 51.549Z" fill="#6BC159"/>
<path d="M31.665 30.415L30.311 27.756C30.225 27.799 30.139 27.843 30.054 27.887L31.408 30.546C31.494 30.502 31.58 30.459 31.665 30.415Z" fill="#6BC159"/>
<path d="M38.019 27.806L37.097 24.968C37.005 24.997 36.913 25.027 36.823 25.057L37.745 27.895C37.837 27.864 37.927 27.835 38.019 27.806Z" fill="#6BC159"/>
<path d="M35.855 28.562L34.786 25.776C34.697 25.81 34.607 25.845 34.518 25.88L35.586 28.666C35.676 28.632 35.766 28.597 35.855 28.562Z" fill="#6BC159"/>
<path d="M33.736 29.434L32.522 26.708C32.434 26.747 32.346 26.785 32.258 26.825L33.472 29.552C33.56 29.512 33.648 29.473 33.736 29.434Z" fill="#6BC159"/>
<path d="M27.691 32.697L26.066 30.195C25.985 30.247 25.904 30.299 25.824 30.352L27.45 32.855C27.529 32.801 27.61 32.749 27.691 32.697Z" fill="#6BC159"/>
<path d="M29.648 31.504L28.156 28.919C28.072 28.967 27.989 29.016 27.906 29.064L29.399 31.649C29.481 31.6 29.564 31.552 29.648 31.504Z" fill="#6BC159"/>
<path d="M46.979 25.939L46.666 22.972C46.571 22.982 46.476 22.993 46.38 23.002L46.692 25.969C46.788 25.96 46.882 25.949 46.979 25.939Z" fill="#6BC159"/>
<path d="M49.264 25.77L49.109 22.791C49.011 22.796 48.917 22.801 48.82 22.806L48.976 25.785C49.072 25.78 49.169 25.774 49.264 25.77Z" fill="#6BC159"/>
<path d="M40.219 27.162L39.447 24.28C39.354 24.304 39.261 24.328 39.169 24.353L39.94 27.236C40.034 27.211 40.127 27.187 40.219 27.162Z" fill="#6BC159"/>
<path d="M25.799 33.99L24.045 31.575C23.967 31.632 23.889 31.688 23.812 31.745L25.566 34.16C25.644 34.103 25.721 34.047 25.799 33.99Z" fill="#6BC159"/>
<path d="M42.45 26.637L41.83 23.718C41.735 23.738 41.642 23.758 41.548 23.778L42.169 26.696C42.262 26.676 42.356 26.656 42.45 26.637Z" fill="#6BC159"/>
<path d="M44.706 26.228L44.239 23.281C44.143 23.296 44.049 23.311 43.955 23.326L44.421 26.273C44.515 26.259 44.61 26.243 44.706 26.228Z" fill="#6BC159"/>
<path d="M16.085 43.642L13.669 41.888C13.613 41.966 13.556 42.043 13.5 42.121L15.915 43.875C15.97 43.797 16.027 43.72 16.085 43.642Z" fill="#6BC159"/>
<path d="M13.573 47.475L10.987 45.982C10.938 46.065 10.89 46.148 10.842 46.231L13.428 47.724C13.475 47.641 13.524 47.558 13.573 47.475Z" fill="#6BC159"/>
<path d="M12.47 49.484L9.80996 48.128C9.76596 48.213 9.72196 48.299 9.67896 48.385L12.339 49.74C12.383 49.655 12.426 49.569 12.47 49.484Z" fill="#6BC159"/>
<path d="M10.59 53.663L7.80297 52.593C7.76797 52.682 7.73297 52.772 7.69897 52.862L10.486 53.932C10.521 53.842 10.555 53.753 10.59 53.663Z" fill="#6BC159"/>
<path d="M14.778 45.525L12.274 43.899C12.221 43.98 12.17 44.06 12.118 44.141L14.621 45.766C14.673 45.686 14.725 45.605 14.778 45.525Z" fill="#6BC159"/>
<path d="M69.086 109.54L70.299 112.264C70.387 112.225 70.475 112.186 70.563 112.147L69.349 109.422C69.261 109.461 69.173 109.5 69.086 109.54Z" fill="#6BC159"/>
<path d="M17.486 41.83L15.167 39.952C15.107 40.027 15.046 40.1 14.985 40.175L17.304 42.054C17.365 41.978 17.426 41.904 17.486 41.83Z" fill="#6BC159"/>
<path d="M20.564 38.4361L18.454 36.326C18.386 36.393 18.318 36.462 18.25 36.53L20.36 38.64C20.427 38.572 20.496 38.5041 20.564 38.4361Z" fill="#6BC159"/>
<path d="M9.81797 55.821L6.97897 54.898C6.94897 54.989 6.91898 55.081 6.88898 55.172L9.72897 56.095C9.75797 56.004 9.78897 55.912 9.81797 55.821Z" fill="#6BC159"/>
<path d="M22.231 36.864L20.234 34.646C20.163 34.711 20.09 34.774 20.02 34.839L22.017 37.056C22.088 36.993 22.16 36.928 22.231 36.864Z" fill="#6BC159"/>
<path d="M23.977 35.38L22.099 33.061C22.025 33.121 21.951 33.183 21.875 33.244L23.754 35.563C23.829 35.501 23.902 35.44 23.977 35.38Z" fill="#6BC159"/>
<path d="M18.98 40.093L16.763 38.096C16.699 38.167 16.633 38.24 16.57 38.311L18.788 40.308C18.852 40.235 18.916 40.164 18.98 40.093Z" fill="#6BC159"/>
<defs>
<linearGradient id="paint0_linear_4_1564" x1="35.6315" y1="22.1215" x2="35.6315" y2="115.702" gradientUnits="userSpaceOnUse">
<stop stop-color="#00370B"/>
<stop offset="0.5212" stop-color="#336D3E"/>
<stop offset="1" stop-color="#00370B"/>
</linearGradient>
<linearGradient id="paint1_linear_4_1564" x1="5.5905" y1="22.1225" x2="5.5905" y2="115.702" gradientUnits="userSpaceOnUse">
<stop stop-color="#00370B"/>
<stop offset="0.5212" stop-color="#336D3E"/>
<stop offset="1" stop-color="#00370B"/>
</linearGradient>
<linearGradient id="paint2_linear_4_1564" x1="14.8463" y1="22.12" x2="14.8463" y2="115.703" gradientUnits="userSpaceOnUse">
<stop stop-color="#00370B"/>
<stop offset="0.5212" stop-color="#336D3E"/>
<stop offset="1" stop-color="#00370B"/>
</linearGradient>
<linearGradient id="paint3_linear_4_1564" x1="57.2521" y1="22.122" x2="57.2521" y2="115.702" gradientUnits="userSpaceOnUse">
<stop stop-color="#00370B"/>
<stop offset="0.5212" stop-color="#336D3E"/>
<stop offset="1" stop-color="#00370B"/>
</linearGradient>
<linearGradient id="paint4_linear_4_1564" x1="45.7267" y1="22.1195" x2="45.7267" y2="115.706" gradientUnits="userSpaceOnUse">
<stop stop-color="#00370B"/>
<stop offset="0.5212" stop-color="#336D3E"/>
<stop offset="1" stop-color="#00370B"/>
</linearGradient>
<linearGradient id="paint5_linear_4_1564" x1="50.2663" y1="86.5077" x2="56.2008" y2="86.5077" gradientUnits="userSpaceOnUse">
<stop stop-color="#00370B"/>
<stop offset="0.5212" stop-color="#336D3E"/>
<stop offset="1" stop-color="#00370B"/>
</linearGradient>
<linearGradient id="paint6_linear_4_1564" x1="58.8668" y1="86.5214" x2="65.486" y2="86.5214" gradientUnits="userSpaceOnUse">
<stop stop-color="#00370B"/>
<stop offset="0.5212" stop-color="#336D3E"/>
<stop offset="1" stop-color="#00370B"/>
</linearGradient>
<linearGradient id="paint7_linear_4_1564" x1="40.0934" y1="86.579" x2="47.0641" y2="86.579" gradientUnits="userSpaceOnUse">
<stop stop-color="#00370B"/>
<stop offset="0.5212" stop-color="#336D3E"/>
<stop offset="1" stop-color="#00370B"/>
</linearGradient>
<linearGradient id="paint8_linear_4_1564" x1="24.7672" y1="86.5302" x2="31.0846" y2="86.5302" gradientUnits="userSpaceOnUse">
<stop stop-color="#00370B"/>
<stop offset="0.5212" stop-color="#336D3E"/>
<stop offset="1" stop-color="#00370B"/>
</linearGradient>
<linearGradient id="paint9_linear_4_1564" x1="32.3249" y1="86.4364" x2="39.4958" y2="86.4364" gradientUnits="userSpaceOnUse">
<stop stop-color="#00370B"/>
<stop offset="0.5212" stop-color="#336D3E"/>
<stop offset="1" stop-color="#00370B"/>
</linearGradient>
<linearGradient id="paint10_linear_4_1564" x1="68.028" y1="86.579" x2="74.8942" y2="86.579" gradientUnits="userSpaceOnUse">
<stop stop-color="#00370B"/>
<stop offset="0.5212" stop-color="#336D3E"/>
<stop offset="1" stop-color="#00370B"/>
</linearGradient>
<linearGradient id="paint11_linear_4_1564" x1="58.7765" y1="22.1205" x2="58.7765" y2="115.703" gradientUnits="userSpaceOnUse">
<stop stop-color="#00370B"/>
<stop offset="0.5212" stop-color="#336D3E"/>
<stop offset="1" stop-color="#00370B"/>
</linearGradient>
<linearGradient id="paint12_linear_4_1564" x1="57.5417" y1="22.1209" x2="57.5417" y2="115.702" gradientUnits="userSpaceOnUse">
<stop stop-color="#00370B"/>
<stop offset="0.5212" stop-color="#336D3E"/>
<stop offset="1" stop-color="#00370B"/>
</linearGradient>
<linearGradient id="paint13_linear_4_1564" x1="63.3927" y1="22.1187" x2="63.3927" y2="115.703" gradientUnits="userSpaceOnUse">
<stop stop-color="#00370B"/>
<stop offset="0.5212" stop-color="#336D3E"/>
<stop offset="1" stop-color="#00370B"/>
</linearGradient>
<linearGradient id="paint14_linear_4_1564" x1="80.07" y1="22.1215" x2="80.07" y2="115.702" gradientUnits="userSpaceOnUse">
<stop stop-color="#00370B"/>
<stop offset="0.5212" stop-color="#336D3E"/>
<stop offset="1" stop-color="#00370B"/>
</linearGradient>
<linearGradient id="paint15_linear_4_1564" x1="66.3463" y1="22.1187" x2="66.3463" y2="115.703" gradientUnits="userSpaceOnUse">
<stop stop-color="#00370B"/>
<stop offset="0.5212" stop-color="#336D3E"/>
<stop offset="1" stop-color="#00370B"/>
</linearGradient>
<linearGradient id="paint16_linear_4_1564" x1="52.0573" y1="22.1205" x2="52.0573" y2="115.703" gradientUnits="userSpaceOnUse">
<stop stop-color="#00370B"/>
<stop offset="0.5212" stop-color="#336D3E"/>
<stop offset="1" stop-color="#00370B"/>
</linearGradient>
<linearGradient id="paint17_linear_4_1564" x1="51.2897" y1="3.47464" x2="51.2897" y2="135.773" gradientUnits="userSpaceOnUse">
<stop stop-color="#3B9624"/>
<stop offset="0.297" stop-color="#6BC159"/>
<stop offset="0.5091" stop-color="#A6DA9B"/>
<stop offset="0.7273" stop-color="#6BC159"/>
<stop offset="1" stop-color="#3B9624"/>
</linearGradient>
<linearGradient id="paint18_linear_4_1564" x1="51.5138" y1="3.4701" x2="51.5138" y2="135.777" gradientUnits="userSpaceOnUse">
<stop stop-color="#3B9624"/>
<stop offset="0.297" stop-color="#6BC159"/>
<stop offset="0.5091" stop-color="#A6DA9B"/>
<stop offset="0.7273" stop-color="#6BC159"/>
<stop offset="1" stop-color="#3B9624"/>
</linearGradient>
<linearGradient id="paint19_linear_4_1564" x1="54.7531" y1="3.4711" x2="54.7531" y2="135.775" gradientUnits="userSpaceOnUse">
<stop stop-color="#3B9624"/>
<stop offset="0.297" stop-color="#6BC159"/>
<stop offset="0.5091" stop-color="#A6DA9B"/>
<stop offset="0.7273" stop-color="#6BC159"/>
<stop offset="1" stop-color="#3B9624"/>
</linearGradient>
<linearGradient id="paint20_linear_4_1564" x1="51.3971" y1="3.4711" x2="51.3971" y2="135.774" gradientUnits="userSpaceOnUse">
<stop stop-color="#3B9624"/>
<stop offset="0.297" stop-color="#6BC159"/>
<stop offset="0.5091" stop-color="#A6DA9B"/>
<stop offset="0.7273" stop-color="#6BC159"/>
<stop offset="1" stop-color="#3B9624"/>
</linearGradient>
<linearGradient id="paint21_linear_4_1564" x1="52.277" y1="3.47159" x2="52.277" y2="135.775" gradientUnits="userSpaceOnUse">
<stop stop-color="#3B9624"/>
<stop offset="0.297" stop-color="#6BC159"/>
<stop offset="0.5091" stop-color="#A6DA9B"/>
<stop offset="0.7273" stop-color="#6BC159"/>
<stop offset="1" stop-color="#3B9624"/>
</linearGradient>
</defs>
</svg>